<svg
  width="100"
  height="100"
  viewBox="10 8 72 66"
  xmlns="http://www.w3.org/2000/svg"
>
  <path
    d="M50 15 C59.02 20.05 60.87 31.32 63.5 40.63 C63.7 41.35 63.91 42.08 64.12 42.83 C66.01 49.39 68.36 55.68 72.65 61.07 C74 63 74 63 74 66 C70.66 66.08 68.6 65.52 66.07 63.32 C61.52 58.34 57.9 52.96 54.45 47.19 C53.19 44.88 53.19 44.88 51 44 C48.96 43.69 48.96 43.69 46.69 43.63 C45.93 43.58 45.17 43.53 44.39 43.48 C38.62 44.74 35.57 50.89 32.56 55.56 C32.21 56.13 31.85 56.69 31.48 57.27 C28.84 61.26 26.21 63.73 22 66 C20.68 66 19.36 66 18 66 C18.97 63.17 19.87 61.15 21.86 58.89 C24.62 55.16 25.98 51.36 27.5 47 C27.8 46.16 28.11 45.32 28.42 44.45 C30.16 39.57 31.74 34.66 33.19 29.69 C34.87 24.06 36.71 20.37 40.81 16.13 C44.11 14.43 46.34 14.49 50 15 Z"
    fill="#000"
  />
</svg>
